<?xml version="1.0" encoding="UTF-8"?>
<svg id="Layer_2" data-name="Layer 2" xmlns="http://www.w3.org/2000/svg" viewBox="0 0 602.24 172.39">
  <defs>
    <style>
      .cls-1 {
        fill: #f2eded;
      }
    </style>
  </defs>
  <g id="Layer_1-2" data-name="Layer 1">
    <path class="cls-1" d="M196.09,81.36h-17.51v-4.57c-4.13,3.9-9.48,5.91-16.06,5.91-12.16,0-19.18-7.92-19.18-17.28,0-10.37,8.36-16.62,21.86-16.62h11.71v-.89c0-4.35-2.68-7.14-8.47-7.14-5.02,0-8.59,2.01-13.94,6.8l-8.92-12.15c7.47-7.58,15.05-11.15,25.2-11.15,15.61,0,25.31,8.7,25.31,24.76v32.34ZM176.91,60.51h-9.03c-3.23,0-5.13,1.56-5.13,4.24s2.12,4.35,5.69,4.35c4.91,0,8.47-3.12,8.47-8.14v-.45Z"/>
    <path class="cls-1" d="M262.09,81.36h-19.18v-31.56c0-4.91-3.35-8.25-8.14-8.25s-8.03,3.35-8.03,8.25v31.56h-19.18V25.6h17.51v4.57c4.13-3.9,9.37-5.91,15.72-5.91,12.94,0,21.3,8.92,21.3,22.75v34.35Z"/>
    <path class="cls-1" d="M300.63,24.27c11.49,0,20.41,5.69,24.98,14.94l-13.27,10.15c-3.01-4.79-6.47-7.47-11.49-7.47-6.69,0-11.04,4.79-11.04,11.6s4.35,11.6,11.04,11.6c5.02,0,8.48-2.79,11.49-7.36l13.27,10.04c-4.57,9.26-13.49,14.94-24.98,14.94-16.62.33-30.78-13.05-30.44-29.22-.33-16.17,13.83-29.55,30.44-29.22ZM284.02,89.28c2.01.11,4.35.11,7.03.11,3.57,0,5.69-2.12,5.69-5.69v-5.35l7.36-3.12c4.79,2.68,7.58,7.14,7.58,12.49,0,8.59-7.36,15.05-19.07,15.05-2.9,0-5.8-.33-8.59-1v-12.49Z"/>
    <path class="cls-1" d="M382.86,81.36h-17.51v-4.57c-4.13,3.9-9.48,5.91-16.06,5.91-12.16,0-19.18-7.92-19.18-17.28,0-10.37,8.36-16.62,21.86-16.62h11.71v-.89c0-4.35-2.68-7.14-8.47-7.14-5.02,0-8.59,2.01-13.94,6.8l-8.92-12.15c7.47-7.58,15.05-11.15,25.2-11.15,15.61,0,25.31,8.7,25.31,24.76v32.34ZM363.68,60.51h-9.03c-3.23,0-5.13,1.56-5.13,4.24s2.12,4.35,5.69,4.35c4.91,0,8.47-3.12,8.47-8.14v-.45Z"/>
    <path class="cls-1" d="M483.09,81.36h-19.18v-31.56c0-5.24-3.12-8.25-7.92-8.25s-7.69,3.01-7.69,8.25v31.56h-19.18v-31.56c0-5.24-3.12-8.25-7.92-8.25s-7.69,3.01-7.69,8.25v31.56h-19.18V25.6h17.51v4.35c4.01-3.79,9.14-5.69,15.28-5.69,6.91,0,12.27,2.34,16.17,7.14,4.46-4.46,11.04-7.14,18.29-7.14,13.27,0,21.52,8.92,21.52,22.75v34.35Z"/>
    <path class="cls-1" d="M521.72,24.27c16.62-.33,30.78,13.27,30.44,29.22.33,15.95-13.83,29.55-30.44,29.22-16.62.33-30.67-13.27-30.33-29.22-.33-15.95,13.72-29.55,30.33-29.22ZM521.83,41.89c-6.36,0-10.82,4.79-10.82,11.6s4.46,11.6,10.82,11.6,10.71-4.91,10.71-11.6-4.57-11.6-10.71-11.6Z"/>
    <path class="cls-1" d="M564.11,60.62c4.79,4.57,9.92,6.91,15.39,6.91,3.23,0,4.91-.78,4.91-2.45,0-1.23-.89-1.78-3.23-2.79l-6.25-2.56c-11.04-4.46-16.17-9.14-16.17-17.95,0-11.04,8.59-17.51,21.63-17.51,8.81,0,15.72,2.68,20.96,8.14l-9.03,11.71c-3.79-3.23-7.69-4.79-11.82-4.79-2.57,0-3.9.67-3.9,2.12,0,1.23,1.12,2.01,3.79,3.01l5.58,2.23c11.15,4.46,16.28,8.7,16.28,17.51,0,5.69-2.12,10.26-6.47,13.6-4.35,3.23-9.81,4.91-16.62,4.91-9.92,0-18.73-3.9-23.97-10.71l8.92-11.37Z"/>
    <path class="cls-1" d="M40.75,80.96l44.54-15.91,2.93,8.2,16.44-26.74-29.67-10.31,2.94,8.23-47.53,16.98,13.62-38.15,9.56,26.78,20.62-7.37L58.97,0h-29.9S0,81.4,0,81.4h38.25c.85,0,1.7-.15,2.51-.43Z"/>
    <polygon class="cls-1" points="83.53 68.77 62.91 76.14 64.78 81.4 88.04 81.4 83.53 68.77"/>
    <path class="cls-1" d="M0,148.03l4.71.15c4.71,0,6.43-1.34,6.43-4.93v-33.63h12.85v35.05c0,10.09-5.75,15.17-16.44,15.17-2.54,0-5.08-.3-7.55-.9v-10.91Z"/>
    <path class="cls-1" d="M32.21,121.57h12.85v21c0,3.21,2.24,5.46,5.45,5.46s5.38-2.24,5.38-5.46v-21h12.85v19.95c0,10.98-7.7,18.31-18.23,18.31s-18.31-7.32-18.31-18.31v-19.95Z"/>
    <path class="cls-1" d="M112.88,158.94h-12.85v-21.15c0-3.29-2.24-5.53-5.45-5.53s-5.38,2.24-5.38,5.53v21.15h-12.85v-37.36h11.73v3.06c2.77-2.62,6.28-3.96,10.54-3.96,8.67,0,14.27,5.98,14.27,15.24v23.02Z"/>
    <path class="cls-1" d="M146.43,148.18v10.76c-2.47.6-5.01.9-7.55.9-10.54,0-16.44-5.08-16.44-15.17v-12.33h-5.68v-10.76h5.68v-8.97h12.85v8.97h10.01v10.76h-10.01v11.06c0,3.59,1.72,4.93,6.43,4.93l4.71-.15Z"/>
    <path class="cls-1" d="M170.34,120.68c11.13-.22,20.62,8.89,20.4,19.58.22,10.69-9.27,19.8-20.4,19.58-11.13.22-20.55-8.89-20.32-19.58-.22-10.69,9.19-19.8,20.32-19.58ZM170.41,132.48c-4.26,0-7.25,3.21-7.25,7.77s2.99,7.77,7.25,7.77,7.17-3.29,7.17-7.77-3.06-7.77-7.17-7.77Z"/>
    <path class="cls-1" d="M198.75,145.04c3.21,3.06,6.65,4.63,10.31,4.63,2.17,0,3.29-.52,3.29-1.64,0-.82-.6-1.2-2.17-1.87l-4.19-1.72c-7.4-2.99-10.83-6.13-10.83-12.03,0-7.4,5.75-11.73,14.5-11.73,5.9,0,10.54,1.79,14.05,5.45l-6.05,7.85c-2.54-2.17-5.16-3.21-7.92-3.21-1.72,0-2.62.45-2.62,1.42,0,.82.75,1.34,2.54,2.02l3.74,1.49c7.47,2.99,10.91,5.83,10.91,11.73,0,3.81-1.42,6.87-4.33,9.12-2.91,2.17-6.58,3.29-11.13,3.29-6.65,0-12.55-2.62-16.06-7.17l5.98-7.62Z"/>
    <path class="cls-1" d="M273.55,159.83c-3.96,0-7.1-1.12-9.56-3.44v15.99h-12.85v-50.81h11.73v3.89c2.32-3.21,5.9-4.78,10.69-4.78,10.46,0,17.93,8.14,17.93,19.5s-7.62,19.65-17.93,19.65ZM271.01,132.33c-3.96,0-7.25,2.77-7.25,7.85s3.29,8,7.25,8,7.32-2.91,7.32-7.92-3.21-7.92-7.32-7.92Z"/>
    <path class="cls-1" d="M308.49,144.74c1.42,2.84,4.18,4.26,8.37,4.26,3.36,0,6.58-.97,9.79-2.91l4.63,8.74c-4.41,3.36-9.41,5.01-14.87,5.01-12.18,0-21-8.52-21-19.58s8.82-19.58,19.95-19.58,17.86,8.07,17.86,17.71c0,2.24-.3,4.33-.82,6.35h-23.91ZM321.04,136.37c-.08-3.36-2.84-5.6-6.2-5.6s-5.83,2.02-6.8,5.6h13Z"/>
    <path class="cls-1" d="M339.34,102.89h12.85v56.04h-12.85v-56.04Z"/>
    <path class="cls-1" d="M393.42,158.94h-11.73v-3.06c-2.77,2.62-6.35,3.96-10.76,3.96-8.14,0-12.85-5.31-12.85-11.58,0-6.95,5.6-11.13,14.65-11.13h7.85v-.6c0-2.91-1.79-4.78-5.68-4.78-3.36,0-5.75,1.34-9.34,4.56l-5.98-8.14c5.01-5.08,10.09-7.47,16.89-7.47,10.46,0,16.96,5.83,16.96,16.59v21.67ZM380.57,144.96h-6.05c-2.17,0-3.44,1.05-3.44,2.84s1.42,2.91,3.81,2.91c3.29,0,5.68-2.09,5.68-5.45v-.3Z"/>
    <path class="cls-1" d="M423.16,109.62h33.48v11.58h-20.62v9.41h16.74v11.58h-16.74v16.74h-12.85v-49.32Z"/>
    <path class="cls-1" d="M487.36,154.83h-17.71l-1.79,4.11h-13.82l22.42-50.21h4.11l22.42,50.21h-13.82l-1.79-4.11ZM478.54,133.08l-4.33,11.43h8.59l-4.26-11.43Z"/>
    <path class="cls-1" d="M506.45,109.62h17.19c15.09-.15,27.12,9.71,26.9,24.51.22,14.57-11.81,25.03-26.9,24.81h-17.19v-49.32ZM523.56,147.35c8.07,0,13.82-5.08,13.82-13.23s-5.68-12.85-13.82-12.85h-4.26v26.08h4.26Z"/>
    <path class="cls-1" d="M556.58,109.62h12.85v29.37c0,5.6,3.66,9.04,8.97,9.04s8.97-3.44,8.97-9.04v-29.37h12.85v28.4c0,13-9.34,21.82-21.82,21.82s-21.82-8.67-21.82-21.82v-28.4Z"/>
    <polygon class="cls-1" points="123.13 25.6 111.87 50.69 100.49 25.6 80.2 25.6 85.78 36.78 105.64 43.68 109.17 44.91 107.21 48.08 98.51 62.24 108.74 82.7 114.88 82.7 143.42 25.6 123.13 25.6"/>
  </g>
</svg>